HIERARCHY
ROOT Hips
{
 OFFSET 0.000000 0.000000 0.000000
 CHANNELS 6 Xposition Yposition Zposition Yrotation Xrotation Zrotation
 JOINT Chest
 {
  OFFSET 0.000000 9.585900 0.002600
  CHANNELS 3 Yrotation Xrotation Zrotation
  JOINT Chest2
  {
   OFFSET 0.000000 9.601200 -0.005300
   CHANNELS 3 Yrotation Xrotation Zrotation
   JOINT Chest3
   {
    OFFSET 0.000000 9.561800 0.000000
    CHANNELS 3 Yrotation Xrotation Zrotation
    JOINT Chest4
    {
     OFFSET 0.000000 9.552100 0.000000
     CHANNELS 3 Yrotation Xrotation Zrotation
     JOINT Neck
     {
      OFFSET 0.000000 14.453000 0.000000
      CHANNELS 3 Yrotation Xrotation Zrotation
      JOINT Head
      {
       OFFSET 0.000000 8.936500 -0.011300
       CHANNELS 3 Yrotation Xrotation Zrotation
       End Site
       {
        OFFSET 0.000000 17.073600 -0.006000
       }
      }
     }
     JOINT RightCollar
     {
      OFFSET -2.921100 9.558500 0.000000
      CHANNELS 3 Yrotation Xrotation Zrotation
      JOINT RightShoulder
      {
       OFFSET -13.519700 0.000000 0.000000
       CHANNELS 3 Yrotation Xrotation Zrotation
       JOINT RightElbow
       {
        OFFSET 0.000000 -29.696600 0.000000
        CHANNELS 3 Yrotation Xrotation Zrotation
        JOINT RightWrist
        {
         OFFSET 0.000000 -24.004700 0.000000
         CHANNELS 3 Yrotation Xrotation Zrotation
         End Site
         {
          OFFSET 0.000000 -17.728500 0.000000
         }
        }
       }
      }
     }
     JOINT LeftCollar
     {
      OFFSET 2.921100 9.558500 0.000000
      CHANNELS 3 Yrotation Xrotation Zrotation
      JOINT LeftShoulder
      {
       OFFSET 13.519700 0.000000 0.000000
       CHANNELS 3 Yrotation Xrotation Zrotation
       JOINT LeftElbow
       {
        OFFSET 0.000000 -29.696600 0.000000
        CHANNELS 3 Yrotation Xrotation Zrotation
        JOINT LeftWrist
        {
         OFFSET 0.000000 -24.004700 0.000000
         CHANNELS 3 Yrotation Xrotation Zrotation
         End Site
         {
          OFFSET 0.000000 -17.728500 0.000000
         }
        }
       }
      }
     }
    }
   }
  }
 }
 JOINT RightHip
 {
  OFFSET -7.771700 -0.012900 -0.001300
  CHANNELS 3 Yrotation Xrotation Zrotation
  JOINT RightKnee
  {
   OFFSET 0.000000 -40.869800 0.001200
   CHANNELS 3 Yrotation Xrotation Zrotation
   JOINT RightAnkle
   {
    OFFSET 0.000000 -39.717900 0.002100
    CHANNELS 3 Yrotation Xrotation Zrotation
    JOINT RightToe
    {
     OFFSET 0.000000 -4.965400 11.033500
     CHANNELS 3 Yrotation Xrotation Zrotation
     End Site
     {
      OFFSET 0.000000 -1.423100 5.872300
     }
    }
   }
  }
 }
 JOINT LeftHip
 {
  OFFSET 7.771700 -0.012900 -0.001300
  CHANNELS 3 Yrotation Xrotation Zrotation
  JOINT LeftKnee
  {
   OFFSET 0.000000 -40.869800 0.001200
   CHANNELS 3 Yrotation Xrotation Zrotation
   JOINT LeftAnkle
   {
    OFFSET 0.000000 -39.717900 0.002100
    CHANNELS 3 Yrotation Xrotation Zrotation
    JOINT LeftToe
    {
     OFFSET 0.000000 -4.965400 11.033500
     CHANNELS 3 Yrotation Xrotation Zrotation
     End Site
     {
      OFFSET 0.000000 -1.423100 5.872300
     }
    }
   }
  }
 }
}
MOTION
Frames: 15
Frame Time: 0.008333
-5.776674 58.465960 44.481904 -178.758494 -30.947596 -3.496235 1.214375 22.265546 3.061580 0.100740 3.180508 0.194611 0.247603 5.171812 0.396527 0.688939 19.007347 1.215677 0.027983 14.878701 0.024267 0.043390 -8.164729 0.034873 3.702524 -2.567597 -0.684415 14.890360 -18.457190 -22.200674 140.214542 -76.039945 -102.843274 21.856074 -18.130879 -51.332759 -6.161216 -4.216029 -1.010201 0.858146 -6.352700 0.188771 -135.875074 -58.701285 108.289209 -13.055458 -4.881659 20.246587 5.541774 -39.739163 -6.219086 -1.147027 69.627097 0.854173 3.650021 6.257361 5.308089 -0.081254 0.218376 -0.085136 -10.997311 -47.021751 2.006286 29.123814 66.016737 28.311903 -8.880442 32.740769 1.953570 0.885118 -19.775951 -6.136218
-5.771973 58.464345 44.488647 -178.815278 -30.952228 -3.514180 1.203316 22.257247 3.009243 0.102710 3.178668 0.190810 0.192599 5.155484 0.332994 0.774378 19.016856 1.249964 -0.088081 14.863538 0.030819 -0.176485 -8.192869 0.090667 3.699349 -2.558237 -0.682992 14.863563 -18.456915 -22.159376 140.496689 -76.067104 -103.090057 21.854297 -18.072840 -51.338681 -6.161363 -4.223283 -1.006184 0.870021 -6.351876 0.257774 -136.017320 -58.675439 108.394929 -13.061944 -4.869227 20.219477 5.532120 -39.732123 -6.180863 -1.119022 69.596073 0.911374 3.664184 6.264526 5.288328 -0.089850 0.205321 -0.077551 -11.047123 -47.021974 2.076937 29.180880 66.022585 28.380296 -8.834848 32.738636 1.973461 0.850169 -19.751235 -6.169486
-5.761159 58.462617 44.496336 -178.927782 -30.953206 -3.543542 1.259207 22.240901 3.000782 0.104472 3.176878 0.186957 0.174810 5.148630 0.306410 0.809034 19.017149 1.247953 -0.205785 14.846105 0.036636 -0.399203 -8.225022 0.145764 3.696764 -2.548156 -0.681087 14.836241 -18.456727 -22.119733 140.612753 -76.106287 -103.215606 21.865510 -18.071408 -51.313101 -6.161802 -4.231108 -1.003635 0.879499 -6.352052 0.326062 -136.153899 -58.652394 108.494719 -13.065029 -4.854887 20.190288 5.534833 -39.734766 -6.086897 -1.093954 69.550373 0.968919 3.678247 6.286227 5.263395 -0.090084 0.206197 -0.078784 -11.095218 -47.021248 2.204316 29.183120 66.046201 28.418129 -8.783409 32.733979 1.955382 0.823324 -19.722970 -6.193550
-5.746768 58.462614 44.501688 -179.001618 -30.968461 -3.618638 1.332215 22.244700 3.071990 0.070978 3.169307 0.145313 0.177052 5.146361 0.299994 0.861735 19.022664 1.277165 -0.376906 14.815649 0.004318 -0.621516 -8.263170 0.200578 3.655017 -2.547432 -0.714271 14.810031 -18.456232 -22.083126 140.712700 -76.132694 -103.327697 21.878099 -18.074515 -51.280951 -6.203918 -4.253961 -1.033966 0.883078 -6.351630 0.391815 -136.281020 -58.631107 108.590553 -13.068091 -4.840914 20.158371 5.480204 -39.715501 -5.953982 -1.070772 69.499287 1.027584 3.690786 6.309641 5.233049 -0.085946 0.210195 -0.084325 -11.201418 -46.999349 2.355558 29.110107 66.086981 28.428554 -8.787316 32.695684 1.820568 0.857913 -19.687357 -6.188772
-5.742489 58.461868 44.507324 -179.056758 -30.979209 -3.646638 1.312994 22.240896 3.004039 0.092133 3.171445 0.160443 0.214195 5.151037 0.335289 0.794279 19.009787 1.185781 -0.464618 14.795695 0.028191 -0.838636 -8.309172 0.253834 3.682572 -2.538738 -0.688262 14.781234 -18.456425 -22.052234 140.983622 -76.148918 -103.570602 21.904305 -18.026397 -51.266829 -6.182513 -4.259338 -1.006559 0.875142 -6.349522 0.456518 -136.398528 -58.613059 108.685539 -13.074947 -4.824241 20.130120 5.458816 -39.701655 -5.903095 -1.029559 69.466096 1.098711 3.701834 6.321616 5.209068 -0.081311 0.215259 -0.089419 -11.262819 -46.990974 2.431296 29.133995 66.098709 28.480078 -8.741856 32.689794 1.802275 0.838039 -19.672222 -6.208313
-5.734094 58.462627 44.510933 -179.111359 -31.003986 -3.702464 1.315108 22.251804 2.971244 0.108426 3.173351 0.174510 0.251052 5.154796 0.370871 0.726393 19.000364 1.092100 -0.549216 14.770312 0.051439 -1.048428 -8.363651 0.303018 3.713021 -2.533050 -0.661613 14.788037 -18.464431 -21.998920 140.842554 -76.155614 -103.469475 21.912472 -18.036877 -51.238355 -6.158966 -4.268613 -0.975840 0.855289 -6.346454 0.520423 -136.506396 -58.597962 108.775602 -13.083389 -4.805272 20.109501 5.414755 -39.671826 -5.805510 -0.994804 69.425474 1.156906 3.713220 6.342028 5.186141 -0.088186 0.207080 -0.084899 -11.345993 -46.963862 2.545082 29.198336 66.100916 28.548778 -8.633855 32.717543 1.868482 0.759797 -19.673665 -6.248492
-5.732953 58.461863 44.516231 -179.158140 -31.014961 -3.719561 1.311419 22.253240 2.919359 0.138519 3.177042 0.208684 0.165153 5.141955 0.262115 0.807702 19.009651 1.130611 -0.658290 14.735525 0.053643 -1.253881 -8.427329 0.348666 3.719857 -2.533478 -0.659160 14.789788 -18.474651 -21.942672 140.696807 -76.163322 -103.356019 21.915271 -18.050600 -51.211710 -6.159126 -4.287636 -0.963348 0.830991 -6.343493 0.581658 -136.602260 -58.582014 108.856119 -13.091696 -4.789003 20.094753 5.399326 -39.658714 -5.772403 -0.952039 69.398456 1.221830 3.727838 6.354180 5.164122 -0.090576 0.201314 -0.079417 -11.393582 -46.959332 2.600968 29.261132 66.104466 28.616027 -8.571280 32.725782 1.906724 0.717655 -19.653200 -6.284042
-5.728490 58.460776 44.522292 -179.209845 -31.020509 -3.752578 1.322030 22.252016 2.889779 0.170930 3.177350 0.243695 0.120009 5.140763 0.198213 0.835841 19.013666 1.126007 -0.765305 14.694967 0.055615 -1.455641 -8.501504 0.393182 3.722652 -2.537964 -0.661360 14.707825 -18.466877 -21.959921 141.126474 -76.201271 -103.751609 21.921267 -18.049097 -51.185568 -6.165194 -4.310844 -0.951229 0.804908 -6.342059 0.641340 -136.690746 -58.565469 108.931842 -13.103670 -4.774679 20.083046 5.376782 -39.650196 -5.715235 -0.939001 69.365322 1.264439 3.741204 6.367759 5.140817 -0.087984 0.199037 -0.077141 -11.457223 -46.957356 2.681373 29.299670 66.110565 28.678747 -8.530385 32.736144 1.901395 0.696397 -19.609481 -6.309354
-5.730147 58.457156 44.531610 -179.215612 -30.998889 -3.768805 1.278667 22.231148 2.819165 0.125037 3.174286 0.179978 0.176227 5.146137 0.248717 0.845008 19.016373 1.101995 -0.869642 14.649116 0.057941 -1.652690 -8.585415 0.437460 3.723937 -2.546532 -0.664379 14.662554 -18.465672 -21.953867 141.506374 -76.229646 -104.103673 21.933076 -18.013983 -51.157772 -6.175914 -4.337987 -0.941178 0.776178 -6.342722 0.702580 -136.770564 -58.547049 109.003093 -13.115547 -4.760179 20.071992 5.359944 -39.667702 -5.713764 -0.923690 69.346423 1.298905 3.743569 6.371720 5.132161 -0.090726 0.188372 -0.067184 -11.501043 -46.981816 2.703816 29.200715 66.122522 28.657941 -8.651139 32.710927 1.694806 0.799438 -19.542054 -6.264897
-5.725254 58.455712 44.537669 -179.262276 -31.002109 -3.798180 1.291023 22.232520 2.790510 0.115710 3.176031 0.157874 0.192109 5.147457 0.259494 0.853488 19.019910 1.078045 -0.971145 14.599733 0.060402 -1.844622 -8.675705 0.481264 3.726876 -2.557258 -0.667619 14.635537 -18.466336 -21.938917 141.788078 -76.255212 -104.371191 21.942792 -17.980980 -51.130499 -6.189847 -4.366498 -0.935530 0.747210 -6.344841 0.764917 -136.834620 -58.524774 109.061362 -13.122979 -4.746488 20.061852 5.335918 -39.662256 -5.661126 -0.868166 69.316294 1.377311 3.741460 6.383861 5.112758 -0.082634 0.195705 -0.074875 -11.536920 -46.977821 2.774171 29.185101 66.124331 28.676106 -8.663420 32.731582 1.665136 0.820710 -19.516024 -6.289724
-5.720411 58.454790 44.542328 -179.314478 -31.013929 -3.818116 1.308542 22.241503 2.757031 0.117828 3.177790 0.153949 0.195367 5.150138 0.253132 0.862839 19.024617 1.055266 -1.069136 14.547614 0.063072 -2.030216 -8.771020 0.524430 3.733832 -2.569236 -0.673101 14.605557 -18.465313 -21.926452 141.669556 -76.284348 -104.261606 21.938172 -18.040084 -51.131750 -6.203997 -4.395413 -0.932827 0.718334 -6.348561 0.824902 -136.889683 -58.503239 109.107101 -13.132575 -4.736031 20.052572 5.319441 -39.648580 -5.615833 -0.798892 69.288259 1.466234 3.745837 6.392418 5.096556 -0.084046 0.195762 -0.076545 -11.575185 -46.972980 2.833871 29.235851 66.124786 28.743172 -8.622234 32.767579 1.690057 0.802046 -19.517687 -6.331079
-5.704082 58.454768 44.546210 -179.361255 -31.030740 -3.902932 1.347732 22.255595 2.790239 0.128770 3.178630 0.167237 0.189879 5.155108 0.230752 0.875995 19.030322 1.034567 -1.163684 14.493401 0.066231 -2.209554 -8.870274 0.567280 3.743620 -2.584250 -0.679938 14.574426 -18.463086 -21.917449 141.685321 -76.317858 -104.267203 21.944947 -18.065869 -51.136541 -6.219018 -4.425893 -0.928920 0.708574 -6.346593 0.886729 -136.982460 -58.485107 109.167972 -13.147577 -4.727492 20.045347 5.264015 -39.626104 -5.474431 -0.797187 69.244079 1.486813 3.747184 6.415718 5.088314 -0.087019 0.180486 -0.068025 -11.699348 -46.967603 2.975769 29.354355 66.129506 28.880853 -8.496217 32.860098 1.782635 0.718606 -19.593594 -6.403557
-5.694489 58.452626 44.552098 -179.398976 -31.029252 -3.945521 1.362733 22.255401 2.774319 0.158481 3.176136 0.215378 0.163926 5.163912 0.174960 0.914216 19.027394 1.061458 -1.287385 14.446094 0.029500 -2.385876 -8.970920 0.610111 3.735446 -2.592246 -0.724777 14.545668 -18.459443 -21.912669 141.761990 -76.355711 -104.332229 21.954982 -18.088136 -51.149531 -6.256818 -4.453316 -0.962321 0.678288 -6.350592 0.936130 -137.030634 -58.464993 109.202063 -13.167761 -4.667712 20.054325 5.246450 -39.624278 -5.415106 -0.781727 69.215060 1.535768 3.752376 6.427742 5.071773 -0.086107 0.180874 -0.068408 -11.759750 -46.976316 3.062560 29.386858 66.134373 28.946309 -8.500657 32.901312 1.753542 0.722959 -19.615433 -6.422550
-5.685097 58.450754 44.556799 -179.439099 -31.032668 -3.980260 1.383076 22.261900 2.755934 0.163437 3.176656 0.212107 0.167813 5.169863 0.169547 0.948630 19.022856 1.087432 -1.404969 14.400456 -0.007720 -2.560074 -9.071583 0.652000 3.733258 -2.601635 -0.770551 14.527936 -18.468526 -21.867703 141.624489 -76.380299 -104.182064 21.963014 -18.138474 -51.190437 -6.294223 -4.479682 -0.996545 0.628050 -6.361391 0.975559 -137.027018 -58.447388 109.206081 -13.175114 -4.677404 20.045071 5.237792 -39.618776 -5.361733 -0.772293 69.189731 1.576917 3.754355 6.439579 5.052682 -0.081869 0.183493 -0.068858 -11.814723 -46.978959 3.146801 29.432706 66.139886 29.010779 -8.494698 32.931866 1.742154 0.729672 -19.588555 -6.447477
-5.675329 58.448929 44.560849 -179.481143 -31.036469 -4.012208 1.417279 22.267498 2.758979 0.127388 3.187729 0.139526 0.208143 5.167704 0.215859 0.937424 19.043720 1.000390 -1.450398 14.332764 0.056092 -2.729176 -9.172154 0.692461 3.769974 -2.644247 -0.721200 14.502516 -18.453404 -21.889063 141.758990 -76.425647 -104.310796 21.969691 -18.146230 -51.207602 -6.293608 -4.519810 -0.932084 0.595453 -6.368708 1.020936 -137.053045 -58.440926 109.222156 -13.177490 -4.682677 20.041397 5.230327 -39.615100 -5.305698 -0.787483 69.167635 1.589061 3.764032 6.455058 5.032634 -0.078898 0.181475 -0.065364 -11.873750 -46.977869 3.236021 29.469730 66.148818 29.062671 -8.492810 32.945177 1.718907 0.733333 -19.580011 -6.463106
